<?xml version="1.0" encoding="utf-8"?>
<!-- Generator: Adobe Illustrator 15.1.0, SVG Export Plug-In . SVG Version: 6.00 Build 0)  -->
<!DOCTYPE svg PUBLIC "-//W3C//DTD SVG 1.1//EN" "http://www.w3.org/Graphics/SVG/1.1/DTD/svg11.dtd">
<svg version="1.1" xmlns="http://www.w3.org/2000/svg" xmlns:xlink="http://www.w3.org/1999/xlink" x="0px" y="0px"
	 width="618.589px" height="181.938px" viewBox="0 0 618.589 181.938" enable-background="new 0 0 618.589 181.938"
	 xml:space="preserve">
<g id="Layer_1" display="none">
</g>
<g id="Layer_5">
</g>
<g id="aerial">
	<g id="glonast">
		<g>
			<g>
				
					<rect x="539.719" y="70.368" transform="matrix(0.7553 0.6554 -0.6554 0.7553 187.1139 -339.0403)" fill="#FFFFFF" stroke="#000000" stroke-width="0.001" stroke-miterlimit="10" width="15.654" height="21.331"/>
				
					<rect x="531.174" y="63.64" transform="matrix(0.7551 0.6556 -0.6556 0.7551 177.0559 -333.5883)" fill="#FFFFFF" stroke="#000000" stroke-width="0.001" stroke-miterlimit="10" width="7.83" height="13.167"/>
				
					<rect x="515.066" y="48.975" transform="matrix(0.7553 0.6554 -0.6554 0.7553 167.0386 -328.0985)" fill="#FFFFFF" stroke="#000000" stroke-width="0.001" stroke-miterlimit="10" width="15.656" height="21.332"/>
				
					<line fill="#FFFFFF" stroke="#000000" stroke-width="0.001" stroke-miterlimit="10" x1="521.554" y1="58.64" x2="543.967" y2="78.089"/>
			</g>
			
				<rect x="522.44" y="48.486" transform="matrix(0.755 0.6558 -0.6558 0.755 161.4498 -331.1178)" fill="#FFFFFF" stroke="#000000" stroke-width="0.001" stroke-miterlimit="10" width="2.731" height="3.994"/>
			
				<rect x="524.503" y="50.277" transform="matrix(0.7555 0.6552 -0.6552 0.7555 162.8462 -331.7642)" fill="#FFFFFF" stroke="#000000" stroke-width="0.001" stroke-miterlimit="10" width="2.732" height="3.994"/>
			
				<rect x="526.454" y="51.97" transform="matrix(0.7556 0.655 -0.655 0.7556 164.3561 -332.5572)" fill="#FFFFFF" stroke="#000000" stroke-width="0.001" stroke-miterlimit="10" width="2.734" height="3.994"/>
			
				<rect x="528.519" y="53.761" transform="matrix(0.7551 0.6557 -0.6557 0.7551 166.3528 -333.7691)" fill="#FFFFFF" stroke="#000000" stroke-width="0.001" stroke-miterlimit="10" width="2.732" height="3.993"/>
			
				<rect x="530.581" y="55.552" transform="matrix(0.7553 0.6554 -0.6554 0.7553 167.8872 -334.5485)" fill="#FFFFFF" stroke="#000000" stroke-width="0.001" stroke-miterlimit="10" width="2.732" height="3.993"/>
			
				<rect x="519.822" y="51.502" transform="matrix(0.7551 0.6556 -0.6556 0.7551 162.6903 -328.5718)" fill="#FFFFFF" stroke="#000000" stroke-width="0.001" stroke-miterlimit="10" width="2.731" height="3.995"/>
			
				<rect x="525.902" y="56.776" transform="matrix(0.7553 0.6554 -0.6554 0.7553 167.531 -331.1683)" fill="#FFFFFF" stroke="#000000" stroke-width="0.001" stroke-miterlimit="10" width="2.731" height="3.995"/>
			
				<rect x="527.964" y="58.568" transform="matrix(0.7553 0.6554 -0.6554 0.7553 169.2064 -332.0792)" fill="#FFFFFF" stroke="#000000" stroke-width="0.001" stroke-miterlimit="10" width="2.735" height="3.994"/>
			
				<rect x="517.434" y="54.257" transform="matrix(0.7556 0.6551 -0.6551 0.7556 163.6552 -326.0967)" fill="#FFFFFF" stroke="#000000" stroke-width="0.001" stroke-miterlimit="10" width="2.735" height="3.99"/>
			
				<rect x="519.499" y="56.048" transform="matrix(0.7552 0.6555 -0.6555 0.7552 165.5368 -327.1992)" fill="#FFFFFF" stroke="#000000" stroke-width="0.001" stroke-miterlimit="10" width="2.731" height="3.989"/>
			
				<rect x="518.832" y="60.752" transform="matrix(0.7556 0.655 -0.655 0.7556 168.2466 -325.4177)" fill="#FFFFFF" stroke="#000000" stroke-width="0.001" stroke-miterlimit="10" width="2.734" height="3.995"/>
			
				<rect x="522.961" y="64.333" transform="matrix(0.7555 0.6552 -0.6552 0.7555 171.6795 -327.3164)" fill="#FFFFFF" stroke="#000000" stroke-width="0.001" stroke-miterlimit="10" width="2.732" height="3.997"/>
			
				<rect x="512.201" y="60.287" transform="matrix(0.7554 0.6553 -0.6553 0.7554 166.4472 -321.3035)" fill="#FFFFFF" stroke="#000000" stroke-width="0.001" stroke-miterlimit="10" width="2.732" height="3.992"/>
			
				<rect x="514.264" y="62.078" transform="matrix(0.7551 0.6557 -0.6557 0.7551 168.3134 -322.3859)" fill="#FFFFFF" stroke="#000000" stroke-width="0.001" stroke-miterlimit="10" width="2.732" height="3.991"/>
			
				<rect x="518.279" y="65.56" transform="matrix(0.7556 0.655 -0.655 0.7556 171.2606 -323.8802)" fill="#FFFFFF" stroke="#000000" stroke-width="0.001" stroke-miterlimit="10" width="2.734" height="3.995"/>
			
				<rect x="520.343" y="67.352" transform="matrix(0.7553 0.6554 -0.6554 0.7553 173.1154 -324.951)" fill="#FFFFFF" stroke="#000000" stroke-width="0.001" stroke-miterlimit="10" width="2.732" height="3.992"/>
		</g>
	</g>
	<g id="topexposeidon">
		<g>
			
				<rect x="442.426" y="82.023" transform="matrix(0.9224 0.3861 -0.3861 0.9224 67.8591 -170.945)" fill="#E5E5E5" width="34.075" height="2.854"/>
			
				<rect x="432.552" y="69.664" transform="matrix(-0.9224 -0.3863 0.3863 -0.9224 814.1959 312.0751)" fill="#E5E5E5" width="11.811" height="9.114"/>
			<path fill="#E5E5E5" d="M443.65,76.568c0.747-1.468,4.831-11.533,4.831-11.533"/>
			<path fill="#E5E5E5" d="M442.973,68.702c0.553-1.33-0.073-2.853-1.398-3.41c-0.84-0.351-1.763-0.231-2.462,0.246
				c-0.409,0.274-0.741,0.665-0.948,1.151c-0.553,1.325,0.071,2.852,1.396,3.407C440.891,70.652,442.415,70.027,442.973,68.702z"/>
			<line fill="#E5E5E5" x1="435.027" y1="68.73" x2="439.748" y2="66.115"/>
			<line fill="#E5E5E5" x1="442.316" y1="68.017" x2="444.406" y2="72.657"/>
		</g>
	</g>
	<g>
		<polygon fill="#FFFFFF" stroke="#000000" stroke-width="0.001" stroke-miterlimit="10" points="329.001,63.467 285.455,48.511 
			282.188,31.926 325.739,46.884 		"/>
		<polygon fill="#FFFFFF" stroke="#000000" stroke-width="0.001" stroke-miterlimit="10" points="387.707,85.295 358.789,75.356 
			355.534,58.779 384.444,68.718 		"/>
		<polygon fill="#FFFFFF" stroke="#000000" stroke-width="0.001" stroke-miterlimit="10" points="293.246,50.647 286.341,48.277 
			283.592,34.344 290.511,36.715 		"/>
		<polygon fill="#FFFFFF" stroke="#000000" stroke-width="0.001" stroke-miterlimit="10" points="300.738,53.148 293.83,50.775 
			291.088,36.845 297.993,39.215 		"/>
		<polygon fill="#FFFFFF" stroke="#000000" stroke-width="0.001" stroke-miterlimit="10" points="308.221,55.652 301.325,53.28 
			298.583,39.348 305.49,41.729 		"/>
		<polygon fill="#FFFFFF" stroke="#000000" stroke-width="0.001" stroke-miterlimit="10" points="315.715,58.158 308.817,55.781 
			306.076,41.856 312.98,44.227 		"/>
		<polygon fill="#FFFFFF" stroke="#000000" stroke-width="0.001" stroke-miterlimit="10" points="323.219,60.659 316.314,58.293 
			313.572,44.36 320.462,46.728 		"/>
		<polygon fill="#FFFFFF" stroke="#000000" stroke-width="0.001" stroke-miterlimit="10" points="354.245,91.66 341.597,87.322 
			332.129,39.148 344.781,43.488 		"/>
		
			<line fill="#FFFFFF" stroke="#000000" stroke-width="0.001" stroke-miterlimit="10" x1="326.056" y1="56.94" x2="339.247" y2="63.229"/>
		
			<line fill="#FFFFFF" stroke="#000000" stroke-width="0.001" stroke-miterlimit="10" x1="347.508" y1="64.833" x2="360.696" y2="71.124"/>
	</g>
	<g>
		<g>
			<path fill-rule="evenodd" clip-rule="evenodd" fill="#FFFFFF" d="M68.138,80.537c-0.021-0.101,0.045-0.112,0.117-0.118
				c-0.385-0.498,0.443-0.853,0.294-1.295c0.203,0.053,0.187,0.322,0.412,0.354c-0.055,0.629-0.069,0.803-0.235,1.47
				c-0.145,0.076-0.285-0.132-0.295,0c-0.138-0.088,0.137-0.31-0.175-0.177C68.174,80.735,68.247,80.545,68.138,80.537z"/>
			<path fill-rule="evenodd" clip-rule="evenodd" fill="#FFFFFF" d="M68.315,79.124c-0.058-0.001-0.046-0.071-0.06-0.117
				C68.313,79.01,68.3,79.079,68.315,79.124z"/>
			<path fill-rule="evenodd" clip-rule="evenodd" fill="#FFFFFF" d="M68.373,78.889C68.349,78.915,68.412,78.852,68.373,78.889
				L68.373,78.889z"/>
			<path fill-rule="evenodd" clip-rule="evenodd" fill="#FFFFFF" d="M68.492,78.948c-0.076-0.013-0.062-0.117,0-0.118
				C68.577,78.857,68.485,78.881,68.492,78.948z"/>
			<path fill-rule="evenodd" clip-rule="evenodd" fill="#FFFFFF" d="M69.667,81.419c-0.04,0-0.078,0-0.118,0
				c-0.031-0.048-0.061-0.097-0.059-0.177c0.196,0.059,0.193-0.082,0.176-0.236c0.093-0.004,0.224,0.029,0.235-0.058
				c0.208,0.006-0.125,0.195,0.059,0.176C69.695,81.192,69.801,81.138,69.667,81.419z"/>
			<path fill-rule="evenodd" clip-rule="evenodd" fill="#FFFFFF" d="M69.727,81.536C69.494,81.468,69.958,81.468,69.727,81.536
				L69.727,81.536z"/>
			<path fill-rule="evenodd" clip-rule="evenodd" fill="#FFFFFF" d="M69.727,79.712c-0.057,0-0.047-0.071-0.06-0.117
				C69.726,79.598,69.713,79.667,69.727,79.712z"/>
			<path fill-rule="evenodd" clip-rule="evenodd" fill="#FFFFFF" d="M69.786,80.595C69.761,80.621,69.824,80.557,69.786,80.595
				L69.786,80.595z"/>
			<path fill-rule="evenodd" clip-rule="evenodd" fill="#FFFFFF" d="M69.786,79.184C69.761,79.208,69.824,79.146,69.786,79.184
				L69.786,79.184z"/>
			<path fill-rule="evenodd" clip-rule="evenodd" fill="#FFFFFF" d="M69.844,80.478C69.819,80.501,69.883,80.439,69.844,80.478
				L69.844,80.478z"/>
			<path fill-rule="evenodd" clip-rule="evenodd" fill="#FFFFFF" d="M70.256,79.124C70.231,79.149,70.294,79.086,70.256,79.124
				L70.256,79.124z"/>
			<path fill-rule="evenodd" clip-rule="evenodd" fill="#FFFFFF" d="M70.256,78.948c0.123-0.143,0.083-0.125,0.06-0.353
				c0.092,0.083,0.149,0.203,0.176,0.353C70.412,78.948,70.333,78.948,70.256,78.948z"/>
			<path fill-rule="evenodd" clip-rule="evenodd" fill="#FFFFFF" d="M70.315,78.478C70.29,78.502,70.353,78.438,70.315,78.478
				L70.315,78.478z"/>
			<path fill-rule="evenodd" clip-rule="evenodd" fill="#FFFFFF" d="M70.728,80.83C70.702,80.854,70.764,80.792,70.728,80.83
				L70.728,80.83z"/>
			<path fill-rule="evenodd" clip-rule="evenodd" fill="#FFFFFF" d="M70.728,78.83C70.702,78.855,70.764,78.792,70.728,78.83
				L70.728,78.83z"/>
			<path fill-rule="evenodd" clip-rule="evenodd" fill="#FFFFFF" d="M70.728,79.89C70.906,80.263,70.652,80.517,70.728,79.89
				L70.728,79.89z"/>
			<path fill-rule="evenodd" clip-rule="evenodd" fill="#FFFFFF" d="M70.786,79.712C70.76,79.737,70.822,79.674,70.786,79.712
				L70.786,79.712z"/>
			<path fill-rule="evenodd" clip-rule="evenodd" fill="#FFFFFF" d="M70.844,79.596c-0.069-0.01-0.05-0.107-0.058-0.177
				C70.854,79.429,70.834,79.526,70.844,79.596z"/>
			<path fill-rule="evenodd" clip-rule="evenodd" fill="#FFFFFF" d="M70.961,80.419C70.937,80.443,71,80.379,70.961,80.419
				L70.961,80.419z"/>
			<path fill-rule="evenodd" clip-rule="evenodd" fill="#FFFFFF" d="M70.961,79.007C70.937,79.032,71,78.968,70.961,79.007
				L70.961,79.007z"/>
			<path fill-rule="evenodd" clip-rule="evenodd" fill="#FFFFFF" d="M70.961,81.596c0.025-0.073,0.075-0.121,0.176-0.118
				C71.112,81.55,71.062,81.599,70.961,81.596z"/>
			<path fill-rule="evenodd" clip-rule="evenodd" fill="#FFFFFF" d="M71.257,80.125C71.231,80.15,71.294,80.087,71.257,80.125
				L71.257,80.125z"/>
			<path fill-rule="evenodd" clip-rule="evenodd" fill="#FFFFFF" d="M71.373,80.242C71.349,80.267,71.412,80.203,71.373,80.242
				L71.373,80.242z"/>
			<path fill-rule="evenodd" clip-rule="evenodd" fill="#FFFFFF" d="M71.373,79.184C71.349,79.208,71.412,79.146,71.373,79.184
				L71.373,79.184z"/>
			<path fill-rule="evenodd" clip-rule="evenodd" fill="#FFFFFF" d="M71.903,82.007c0.052-0.159,0.238,0.027,0.177,0.176
				C71.943,82.201,72.014,82.014,71.903,82.007z"/>
			<path fill-rule="evenodd" clip-rule="evenodd" fill="#FFFFFF" d="M72.257,82.301C72.018,82.267,72.603,82.351,72.257,82.301
				L72.257,82.301z"/>
			<path fill-rule="evenodd" clip-rule="evenodd" fill="#FFFFFF" d="M72.549,78.889C72.525,78.915,72.588,78.852,72.549,78.889
				L72.549,78.889z"/>
			<path fill-rule="evenodd" clip-rule="evenodd" fill="#FFFFFF" d="M72.844,79.948c0.045-0.052,0.063-0.132,0.059-0.236
				c0.093,0.32,0.218,0.005,0.411-0.059c-0.007-0.146-0.11-0.182,0-0.293c0.438,0.056,0.389,0.667,0.294,0.94
				C73.381,80.157,73.033,80.132,72.844,79.948z"/>
			<path fill-rule="evenodd" clip-rule="evenodd" fill="#FFFFFF" d="M73.375,82.301c-0.059-0.001-0.047-0.071-0.06-0.117
				C73.372,82.185,73.36,82.256,73.375,82.301z"/>
			<path fill-rule="evenodd" clip-rule="evenodd" fill="#FFFFFF" d="M73.375,82.125c-0.059-0.002-0.047-0.072-0.06-0.117
				C73.372,82.009,73.36,82.08,73.375,82.125z"/>
			<path fill-rule="evenodd" clip-rule="evenodd" fill="#FFFFFF" d="M73.785,79.831c-0.009-0.186,0.238-0.115,0.294-0.235
				c0.313,0.118,0.58,0.282,0.999,0.294c-0.018,0.118,0.012,0.184,0.121,0.177C74.943,80.195,73.899,80.221,73.785,79.831z"/>
			<path fill-rule="evenodd" clip-rule="evenodd" fill="#FFFFFF" d="M69.138,79.007c0.154-0.074,0.404,0.26,0.47,0.472
				c0.19-0.31-0.145-0.6-0.294-0.766c0.176-0.149,0.455,0.285,0.824,0.294c-0.111,0.35,0.146,0.095,0,0.472
				c0.074-0.103,0.199-0.155,0.178-0.354c0.304-0.024,0.156,0.494,0.116,0.648c0.252-0.34,0.148-0.664,0.118-1.117
				c0.663,0.197,0.667,0.372,1.177,0.411c0.021-0.213-0.24,0.045-0.177-0.294c0.068,0.009,0.104-0.013,0.117-0.059
				c0.311,0.38,0.402,0.28,0.647,0.294c-0.187-0.009,0.265,0.099,0.353,0c0.105-0.121-0.09-0.235,0.06-0.059
				c0.08,0.093,0.181-0.149,0.235,0c0,0.079,0,0.157,0,0.236c-0.422,0.105-0.553,0.308-0.766,0.706
				c0.161,0.175,0.455-0.014,0.588-0.059c-0.08,0.328,0.566,0.404,0.707,0.706c-0.071,0.242-0.467,0.159-0.529,0.411
				c0.54-0.279,0.877,0.33,1.293,0.529c-0.006,0.182-0.229-0.182-0.235,0c-0.087-0.026,0.024-0.075,0-0.176
				c-0.111-0.028-0.253,0.181-0.235-0.059c-0.125,0.149,0.093,0.453,0.178,0.588c-0.072,0.142-0.228-0.121-0.354-0.118
				c-0.173,0.051,0.035,0.19,0,0.295c-0.145,0.027-0.173-0.169-0.294-0.059c-0.152-0.377-0.452-0.605-0.94-0.646
				c-0.027-0.164,0.218-0.056,0.233-0.178c-0.327-0.228-0.339,0.365-0.705,0.295c-0.034-0.124-0.146-0.169-0.118-0.354
				c0.136,0.02,0.227-0.009,0.295-0.059c-0.1-0.184-0.414,0.066-0.47-0.058c-0.056-0.29,0.071-0.399,0.175-0.529
				c-0.196-0.074-0.382,0.306-0.528,0.47c-0.332-0.174-0.618,0.154-0.766,0.354c0.02,0.136,0.038,0.275,0.236,0.235
				c0.058,0.315-0.218,0.293-0.178,0.588c-0.196,0.03-0.255-0.332-0.353-0.059c-0.065-0.092,0.153-0.238-0.178-0.119
				c0.055-0.103,0.133-0.182,0.237-0.234c-0.107-0.21-0.112-0.894,0.294-1c-0.07-0.178-0.051-0.452-0.059-0.823
				c-0.207,0.113-0.094,0.494-0.06,0.706c-0.079-0.058-0.116-0.158-0.176-0.236c-0.194,0.034-0.085,0.222-0.059,0.353
				c-0.261,0.095-0.836,0.182-0.706,0.47c-0.039,0.178-0.127-0.056-0.236,0c0.377-0.441,0.437-0.594,0.413-1.352
				c-0.123,0.367-0.062,0.918-0.47,1c0.356-0.211,0.151-0.986,0.294-1.411C69.398,79.218,69.28,79.099,69.138,79.007z
				 M69.667,79.596c0.013,0.045,0.003,0.116,0.06,0.117C69.713,79.667,69.726,79.598,69.667,79.596z M69.786,80.595
				C69.824,80.557,69.761,80.621,69.786,80.595L69.786,80.595z M69.786,80.301c0.19,0.016,0.124-0.229,0.293-0.235
				c0.07,0.153-0.181,0.252,0.059,0.235c0.07-0.166,0.064-0.406,0.06-0.647c-0.215-0.023-0.342-0.439-0.47-0.354
				C69.952,79.566,69.937,80.022,69.786,80.301z M69.786,79.184C69.824,79.146,69.761,79.208,69.786,79.184L69.786,79.184z
				 M69.844,80.478C69.883,80.439,69.819,80.501,69.844,80.478L69.844,80.478z M70.728,80.83
				C70.764,80.792,70.702,80.854,70.728,80.83L70.728,80.83z M70.728,78.83C70.764,78.792,70.702,78.855,70.728,78.83L70.728,78.83z
				 M70.728,79.89C70.652,80.517,70.906,80.263,70.728,79.89L70.728,79.89z M70.786,79.712
				C70.822,79.674,70.76,79.737,70.786,79.712L70.786,79.712z M70.786,79.418c0.008,0.07-0.011,0.167,0.058,0.177
				C70.834,79.526,70.854,79.429,70.786,79.418z M70.961,80.419C71,80.379,70.937,80.443,70.961,80.419L70.961,80.419z
				 M70.961,79.007C71,78.968,70.937,79.032,70.961,79.007L70.961,79.007z M71.257,80.125C71.294,80.087,71.231,80.15,71.257,80.125
				L71.257,80.125z M71.373,80.242C71.412,80.203,71.349,80.267,71.373,80.242L71.373,80.242z M71.373,79.184
				C71.412,79.146,71.349,79.208,71.373,79.184L71.373,79.184z"/>
			<path fill-rule="evenodd" clip-rule="evenodd" fill="#FFFFFF" d="M73.785,78.007c1.561-0.266,2.767,0.644,2.707,2.177
				c-0.06,1.456-1.218,2.365-2.707,2.117c-0.494,0.481-1.383,0.635-2.118,0.295c-0.005-0.209-0.216-0.215-0.176-0.471
				c-0.306,0.404-1.675,0.646-1.647-0.059c-0.694,0.035-0.979-0.401-1.647-0.53c-0.707-0.941-0.597-2.487,0.119-3.294
				c0.378,0.062,0.562-0.309,0.823-0.412c0.198-0.078,0.498-0.02,0.765-0.117c0.447-0.163,0.834-0.657,1.53-0.295
				c0.02,0.012,0.208,0.234,0.233,0.236c0.289,0.023,0.645-0.383,1.06-0.353C73.212,77.336,73.428,77.688,73.785,78.007z
				 M68.255,80.771c0.312-0.133,0.038,0.089,0.175,0.177c0.01-0.132,0.15,0.076,0.295,0c0.167-0.667,0.18-0.841,0.235-1.47
				c-0.225-0.032-0.208-0.302-0.412-0.354c0.148,0.442-0.68,0.797-0.294,1.295c-0.072,0.006-0.139,0.018-0.117,0.118
				C68.247,80.545,68.174,80.735,68.255,80.771z M68.255,79.007c0.014,0.046,0.001,0.116,0.06,0.117
				C68.3,79.079,68.313,79.01,68.255,79.007z M68.373,78.889C68.412,78.852,68.349,78.915,68.373,78.889L68.373,78.889z
				 M68.492,78.83c-0.062,0.001-0.076,0.104,0,0.118C68.485,78.881,68.577,78.857,68.492,78.83z M69.491,79.361
				c-0.143,0.425,0.062,1.2-0.294,1.411c0.408-0.082,0.347-0.633,0.47-1c0.024,0.758-0.036,0.911-0.413,1.352
				c0.109-0.056,0.198,0.178,0.236,0c-0.13-0.288,0.445-0.375,0.706-0.47c-0.026-0.13-0.136-0.319,0.059-0.353
				c0.06,0.078,0.097,0.178,0.176,0.236c-0.034-0.212-0.147-0.593,0.06-0.706c0.007,0.371-0.012,0.645,0.059,0.823
				c-0.406,0.107-0.401,0.791-0.294,1c-0.104,0.053-0.182,0.131-0.237,0.234c0.331-0.12,0.113,0.026,0.178,0.119
				c0.097-0.273,0.156,0.088,0.353,0.059c-0.041-0.295,0.236-0.273,0.178-0.588c-0.198,0.041-0.216-0.099-0.236-0.235
				c0.148-0.199,0.434-0.527,0.766-0.354c0.146-0.165,0.332-0.544,0.528-0.47c-0.104,0.13-0.231,0.239-0.175,0.529
				c0.056,0.125,0.371-0.126,0.47,0.058c-0.068,0.05-0.159,0.079-0.295,0.059c-0.028,0.186,0.084,0.231,0.118,0.354
				c0.366,0.069,0.377-0.523,0.705-0.295c-0.015,0.122-0.26,0.014-0.233,0.178c0.488,0.041,0.788,0.27,0.94,0.646
				c0.121-0.11,0.149,0.086,0.294,0.059c0.035-0.105-0.173-0.244,0-0.295c0.126-0.002,0.282,0.26,0.354,0.118
				c-0.084-0.135-0.303-0.438-0.178-0.588c-0.018,0.24,0.124,0.031,0.235,0.059c0.024,0.101-0.087,0.15,0,0.176
				c0.006-0.182,0.229,0.182,0.235,0c-0.416-0.199-0.753-0.808-1.293-0.529c0.062-0.252,0.458-0.169,0.529-0.411
				c-0.14-0.302-0.787-0.378-0.707-0.706c-0.133,0.045-0.427,0.233-0.588,0.059c0.212-0.398,0.344-0.601,0.766-0.706
				c0-0.079,0-0.157,0-0.236c-0.054-0.149-0.155,0.093-0.235,0c-0.15-0.176,0.045-0.062-0.06,0.059c-0.087,0.099-0.54-0.009-0.353,0
				c-0.245-0.014-0.337,0.086-0.647-0.294c-0.013,0.046-0.049,0.067-0.117,0.059c-0.062,0.339,0.199,0.081,0.177,0.294
				c-0.51-0.039-0.515-0.214-1.177-0.411c0.03,0.454,0.134,0.777-0.118,1.117c0.04-0.154,0.188-0.672-0.116-0.648
				c0.021,0.199-0.104,0.252-0.178,0.354c0.146-0.377-0.111-0.122,0-0.472c-0.369-0.009-0.648-0.443-0.824-0.294
				c0.149,0.166,0.484,0.456,0.294,0.766c-0.066-0.211-0.316-0.546-0.47-0.472C69.28,79.099,69.398,79.218,69.491,79.361z
				 M69.961,81.124c-0.184,0.02,0.15-0.169-0.059-0.176c-0.012,0.087-0.142,0.054-0.235,0.058c0.017,0.155,0.02,0.295-0.176,0.236
				c-0.002,0.08,0.028,0.128,0.059,0.177c0.04,0,0.078,0,0.118,0C69.801,81.138,69.695,81.192,69.961,81.124z M69.727,81.536
				C69.958,81.468,69.494,81.468,69.727,81.536L69.727,81.536z M70.256,79.124C70.294,79.086,70.231,79.149,70.256,79.124
				L70.256,79.124z M70.491,78.948c-0.027-0.149-0.084-0.27-0.176-0.353c0.024,0.228,0.063,0.209-0.06,0.353
				C70.333,78.948,70.412,78.948,70.491,78.948z M70.315,78.478C70.353,78.438,70.29,78.502,70.315,78.478L70.315,78.478z
				 M71.138,81.478c-0.101-0.002-0.151,0.045-0.176,0.118C71.062,81.599,71.112,81.55,71.138,81.478z M71.609,81.889
				C71.652,81.636,71.531,82.344,71.609,81.889L71.609,81.889z M72.08,82.184c0.061-0.149-0.125-0.335-0.177-0.176
				C72.014,82.014,71.943,82.201,72.08,82.184z M72.257,82.301C72.603,82.351,72.018,82.267,72.257,82.301L72.257,82.301z
				 M72.549,78.889C72.588,78.852,72.525,78.915,72.549,78.889L72.549,78.889z M73.608,80.301c0.095-0.274,0.145-0.885-0.294-0.94
				c-0.11,0.111-0.007,0.147,0,0.293c-0.193,0.064-0.318,0.379-0.411,0.059c0.004,0.104-0.014,0.184-0.059,0.236
				C73.033,80.132,73.381,80.157,73.608,80.301z M73.314,82.184c0.013,0.046,0.001,0.116,0.06,0.117
				C73.36,82.256,73.372,82.185,73.314,82.184z M73.314,82.007c0.013,0.045,0.001,0.115,0.06,0.117
				C73.36,82.08,73.372,82.009,73.314,82.007z M75.198,80.066c-0.108,0.007-0.139-0.059-0.121-0.177
				c-0.419-0.012-0.686-0.176-0.999-0.294c-0.056,0.121-0.303,0.05-0.294,0.235C73.899,80.221,74.943,80.195,75.198,80.066z"/>
			<path fill-rule="evenodd" clip-rule="evenodd" fill="#FFFFFF" d="M69.727,79.3c0.128-0.085,0.255,0.33,0.47,0.354
				c0.005,0.241,0.01,0.481-0.06,0.647c-0.24,0.018,0.011-0.082-0.059-0.235c-0.169,0.006-0.103,0.25-0.293,0.235
				C69.937,80.022,69.952,79.566,69.727,79.3z"/>
			<path fill-rule="evenodd" clip-rule="evenodd" fill="#FFFFFF" d="M71.609,81.889C71.531,82.344,71.652,81.636,71.609,81.889
				L71.609,81.889z"/>
		</g>
		<g>
			<path fill-rule="evenodd" clip-rule="evenodd" fill="#FFFFFF" d="M76.774,85.025c0.109-0.105-0.048-0.15,0-0.353
				c0.1,0.002,0.152-0.044,0.177-0.118c0.136,0.06,0.122,0.271,0.117,0.471C76.971,85.025,76.873,85.025,76.774,85.025z
				 M77.01,84.967C77.049,84.928,76.986,84.991,77.01,84.967L77.01,84.967z"/>
			<path fill-rule="evenodd" clip-rule="evenodd" fill="#FFFFFF" d="M76.951,84.437C76.927,84.461,76.99,84.398,76.951,84.437
				L76.951,84.437z"/>
			<path fill-rule="evenodd" clip-rule="evenodd" fill="#FFFFFF" d="M77.01,84.967C76.986,84.991,77.049,84.928,77.01,84.967
				L77.01,84.967z"/>
			<path fill-rule="evenodd" clip-rule="evenodd" fill="#FFFFFF" d="M77.068,84.495C77.043,84.521,77.107,84.458,77.068,84.495
				L77.068,84.495z"/>
			<path fill-rule="evenodd" clip-rule="evenodd" fill="#FFFFFF" d="M77.715,85.025c-0.072-0.014-0.059-0.117,0-0.117
				C77.802,84.934,77.71,84.959,77.715,85.025z"/>
			<path fill-rule="evenodd" clip-rule="evenodd" fill="#FFFFFF" d="M77.893,84.908C77.867,84.932,77.931,84.869,77.893,84.908
				L77.893,84.908z"/>
			<path fill-rule="evenodd" clip-rule="evenodd" fill="#FFFFFF" d="M78.01,84.025C77.985,84.049,78.05,83.986,78.01,84.025
				L78.01,84.025z"/>
			<path fill-rule="evenodd" clip-rule="evenodd" fill="#FFFFFF" d="M78.363,85.377C78.131,85.31,78.595,85.31,78.363,85.377
				L78.363,85.377z"/>
			<path fill-rule="evenodd" clip-rule="evenodd" fill="#FFFFFF" d="M78.422,84.732C78.396,84.756,78.459,84.692,78.422,84.732
				L78.422,84.732z"/>
			<path fill-rule="evenodd" clip-rule="evenodd" fill="#FFFFFF" d="M78.951,85.849C78.927,85.874,78.99,85.81,78.951,85.849
				L78.951,85.849z"/>
			<path fill-rule="evenodd" clip-rule="evenodd" fill="#FFFFFF" d="M79.186,83.849c0.446,0.165,0.434,1.573-0.059,1.471
				c0.13,0.125-0.074,0.173-0.059,0.353C78.881,84.961,79.141,84.539,79.186,83.849z"/>
			<path fill-rule="evenodd" clip-rule="evenodd" fill="#FFFFFF" d="M79.303,83.614C79.279,83.638,79.343,83.574,79.303,83.614
				L79.303,83.614z"/>
			<path fill-rule="evenodd" clip-rule="evenodd" fill="#FFFFFF" d="M79.599,84.437C79.575,84.461,79.636,84.398,79.599,84.437
				L79.599,84.437z"/>
			<path fill-rule="evenodd" clip-rule="evenodd" fill="#FFFFFF" d="M80.069,83.614C79.927,83.416,80.265,83.755,80.069,83.614
				L80.069,83.614z"/>
			<path fill-rule="evenodd" clip-rule="evenodd" fill="#FFFFFF" d="M80.126,84.025C80.102,84.049,80.166,83.986,80.126,84.025
				L80.126,84.025z"/>
			<path fill-rule="evenodd" clip-rule="evenodd" fill="#FFFFFF" d="M80.246,83.966c-0.074-0.015-0.059-0.118,0-0.118
				C80.331,83.874,80.238,83.9,80.246,83.966z"/>
			<path fill-rule="evenodd" clip-rule="evenodd" fill="#FFFFFF" d="M80.304,84.26c-0.058-0.001-0.045-0.071-0.059-0.117
				C80.301,84.144,80.289,84.215,80.304,84.26z"/>
			<path fill-rule="evenodd" clip-rule="evenodd" fill="#FFFFFF" d="M80.482,85.555C80.457,85.579,80.518,85.516,80.482,85.555
				L80.482,85.555z"/>
			<path fill-rule="evenodd" clip-rule="evenodd" fill="#FFFFFF" d="M80.657,84.025C80.461,83.939,80.886,83.879,80.657,84.025
				L80.657,84.025z"/>
			<path fill-rule="evenodd" clip-rule="evenodd" fill="#FFFFFF" d="M80.714,85.261c-0.054-0.002-0.045-0.072-0.057-0.118
				C80.714,85.145,80.704,85.214,80.714,85.261z"/>
			<path fill-rule="evenodd" clip-rule="evenodd" fill="#FFFFFF" d="M80.714,84.967C80.482,84.897,80.949,84.897,80.714,84.967
				L80.714,84.967z"/>
			<path fill-rule="evenodd" clip-rule="evenodd" fill="#FFFFFF" d="M80.714,86.437c0.061-0.299,0.341,0.053,0.354,0.175
				C80.916,86.59,80.891,86.438,80.714,86.437z"/>
			<path fill-rule="evenodd" clip-rule="evenodd" fill="#FFFFFF" d="M81.068,85.555C81.044,85.579,81.109,85.516,81.068,85.555
				L81.068,85.555z"/>
			<path fill-rule="evenodd" clip-rule="evenodd" fill="#FFFFFF" d="M81.188,86.378C81.163,86.403,81.224,86.34,81.188,86.378
				L81.188,86.378z"/>
			<path fill-rule="evenodd" clip-rule="evenodd" fill="#FFFFFF" d="M81.188,85.966C81.163,85.991,81.224,85.928,81.188,85.966
				L81.188,85.966z"/>
			<path fill-rule="evenodd" clip-rule="evenodd" fill="#FFFFFF" d="M81.245,86.554c-0.057-0.001-0.045-0.07-0.057-0.117
				C81.243,86.438,81.232,86.509,81.245,86.554z"/>
			<path fill-rule="evenodd" clip-rule="evenodd" fill="#FFFFFF" d="M81.188,85.025C81.365,85.155,81.118,85.402,81.188,85.025
				L81.188,85.025z"/>
			<path fill-rule="evenodd" clip-rule="evenodd" fill="#FFFFFF" d="M81.245,84.143C81.22,84.168,81.284,84.104,81.245,84.143
				L81.245,84.143z"/>
			<path fill-rule="evenodd" clip-rule="evenodd" fill="#FFFFFF" d="M81.305,84.554c-0.057-0.001-0.045-0.071-0.06-0.118
				C81.302,84.438,81.29,84.509,81.305,84.554z"/>
			<path fill-rule="evenodd" clip-rule="evenodd" fill="#FFFFFF" d="M81.305,83.378C81.279,83.403,81.342,83.339,81.305,83.378
				L81.305,83.378z"/>
			<path fill-rule="evenodd" clip-rule="evenodd" fill="#FFFFFF" d="M81.54,85.083c-0.069-0.01-0.051-0.107-0.059-0.175
				C81.549,84.916,81.529,85.014,81.54,85.083z"/>
			<path fill-rule="evenodd" clip-rule="evenodd" fill="#FFFFFF" d="M81.597,83.849C81.573,83.874,81.636,83.81,81.597,83.849
				L81.597,83.849z"/>
			<path fill-rule="evenodd" clip-rule="evenodd" fill="#FFFFFF" d="M81.597,83.614C81.365,83.546,81.831,83.546,81.597,83.614
				L81.597,83.614z"/>
			<path fill-rule="evenodd" clip-rule="evenodd" fill="#FFFFFF" d="M82.01,85.79C81.986,85.815,82.048,85.751,82.01,85.79
				L82.01,85.79z"/>
			<path fill-rule="evenodd" clip-rule="evenodd" fill="#FFFFFF" d="M82.423,83.495C82.397,83.52,82.459,83.457,82.423,83.495
				L82.423,83.495z"/>
			<path fill-rule="evenodd" clip-rule="evenodd" fill="#FFFFFF" d="M83.068,83.437C83.044,83.461,83.107,83.398,83.068,83.437
				L83.068,83.437z"/>
			<path fill-rule="evenodd" clip-rule="evenodd" fill="#FFFFFF" d="M83.127,85.261c-0.056-0.002-0.045-0.072-0.059-0.118
				C83.127,85.145,83.113,85.214,83.127,85.261z"/>
			<path fill-rule="evenodd" clip-rule="evenodd" fill="#FFFFFF" d="M83.303,85.613C83.279,85.638,83.344,85.575,83.303,85.613
				L83.303,85.613z"/>
			<path fill-rule="evenodd" clip-rule="evenodd" fill="#FFFFFF" d="M83.599,84.79c-0.057-0.002-0.045-0.072-0.061-0.118
				C83.597,84.674,83.585,84.744,83.599,84.79z"/>
			<path fill-rule="evenodd" clip-rule="evenodd" fill="#FFFFFF" d="M83.716,85.437C83.692,85.462,83.755,85.398,83.716,85.437
				L83.716,85.437z"/>
			<path fill-rule="evenodd" clip-rule="evenodd" fill="#FFFFFF" d="M83.773,83.79C83.75,83.815,83.812,83.751,83.773,83.79
				L83.773,83.79z"/>
			<path fill-rule="evenodd" clip-rule="evenodd" fill="#FFFFFF" d="M83.833,85.613C83.81,85.638,83.871,85.575,83.833,85.613
				L83.833,85.613z"/>
			<path fill-rule="evenodd" clip-rule="evenodd" fill="#FFFFFF" d="M83.951,85.496c0-0.04,0-0.078,0-0.118
				c0.126-0.028,0.111,0.085,0.118,0.177C84.021,85.542,84.01,85.495,83.951,85.496z"/>
			<path fill-rule="evenodd" clip-rule="evenodd" fill="#FFFFFF" d="M84.187,85.672C84.161,85.696,84.226,85.633,84.187,85.672
				L84.187,85.672z"/>
			<path fill-rule="evenodd" clip-rule="evenodd" fill="#FFFFFF" d="M84.247,85.79C84.013,85.722,84.477,85.722,84.247,85.79
				L84.247,85.79z"/>
			<path fill-rule="evenodd" clip-rule="evenodd" fill="#FFFFFF" d="M84.247,83.907C84.013,83.839,84.477,83.839,84.247,83.907
				L84.247,83.907z"/>
			<path fill-rule="evenodd" clip-rule="evenodd" fill="#FFFFFF" d="M84.421,84.908C84.397,84.932,84.46,84.869,84.421,84.908
				L84.421,84.908z"/>
			<path fill-rule="evenodd" clip-rule="evenodd" fill="#FFFFFF" d="M84.656,85.319c-0.078-0.018-0.048-0.147-0.059-0.236
				c0.047,0.032,0.095,0.061,0.176,0.059c0,0.04,0,0.079,0,0.118C84.708,85.25,84.67,85.273,84.656,85.319z"/>
			<path fill-rule="evenodd" clip-rule="evenodd" fill="#FFFFFF" d="M84.656,84.967c-0.006-0.105,0.074-0.125,0.059-0.235
				c0.294,0,0.589,0,0.883,0c0.05,0.304-0.209,0.299-0.353,0.411C85.202,84.931,84.78,85.1,84.656,84.967z"/>
			<path fill-rule="evenodd" clip-rule="evenodd" fill="#FFFFFF" d="M82.774,87.143c-0.583,0.565-1.173-0.375-1.822-0.47
				c-0.179-0.027-0.22,0.199-0.413,0c-0.103,0.014-0.132,0.101-0.117,0.234c-0.704,0.094-1.363-0.254-1.824-0.588
				c-0.03,0.055,0.001,0.545,0.295,0.47c-0.419,0.039-0.784-0.709-1.471-0.412c-0.136-0.12-0.277-0.233-0.413-0.354
				c-0.143,0.113-0.493,0.058-0.648,0c-0.467-0.598-0.986-2.152,0.06-2.529c0.1-0.232,0.199-0.466,0.353-0.647
				c0.22-0.005,0.169-0.065,0.353,0c0.784-0.935,2.65-1.325,3.941-0.94c0.547-0.372,1.695-0.089,2.117,0
				c-0.042,0.179,0.062,0.214,0.061,0.353c0.512-0.241,1.132,0.18,1.528,0.353c0.193,0.084,0.47,0.039,0.648,0.117
				c0.91,0.41,1.416,2.336,0.764,3.177c-0.628,0.814-2.332,0.051-3.294,0.53c0.266,0.196-0.014,0.712,0.354,0.881
				c0.049,0.012,0.054-0.022,0.057-0.058C83.394,87.498,82.827,87.3,82.774,87.143z M77.068,85.025
				c0.005-0.2,0.019-0.411-0.117-0.471c-0.024,0.074-0.077,0.121-0.177,0.118c-0.048,0.203,0.109,0.248,0,0.353
				C76.873,85.025,76.971,85.025,77.068,85.025z M76.951,84.437C76.99,84.398,76.927,84.461,76.951,84.437L76.951,84.437z
				 M77.068,84.495C77.107,84.458,77.043,84.521,77.068,84.495L77.068,84.495z M77.893,84.613c-0.038-0.381-0.284-0.385-0.531-0.647
				c0.015,0.221,0.223,0.249,0.235,0.47c-0.145,0.231-0.249,0.699-0.058,0.941c-0.016-0.317,0.235-0.026,0.292-0.294
				c0.011,0.088-0.02,0.218,0.061,0.236c0.042-0.214,0.325-0.495,0.47-0.411c-0.312,0.197-0.561,0.458-0.765,0.764
				c0.187-0.028,0.208,0.106,0.413,0.059c0.124-0.168,0.359-0.229,0.588-0.294c-0.232,0.035,0.012-0.243,0.06-0.294
				c-0.018,0.115,0.079,0.118,0.118,0.177c0.048,0.188-0.093,0.183-0.118,0.294c0.208-0.092,0.034,0.2,0.175,0.176
				c0.093-0.773,0.175-1.36,0.293-2c-0.282-0.097-0.437,0.472-0.705,0.176c0.069-0.009,0.166,0.01,0.176-0.059
				c-0.071-0.126-0.277-0.115-0.295-0.293c-0.365-0.026-0.478,0.105-0.588,0.059C77.914,83.9,78.093,84.302,77.893,84.613z
				 M79.068,85.672c-0.015-0.179,0.188-0.228,0.059-0.353c0.493,0.102,0.505-1.306,0.059-1.471
				C79.141,84.539,78.881,84.961,79.068,85.672z M78.951,85.849C78.99,85.81,78.927,85.874,78.951,85.849L78.951,85.849z
				 M82.833,83.32c0.038,0.003,0.069,0.007,0.059,0.058c-0.137-0.019-0.228,0.01-0.294,0.059c-0.042,0.147,0.259,0.242,0.059,0.353
				c-0.086-0.051-0.186-0.087-0.177-0.236c-0.302,0.28-0.603-0.067-0.94,0.177c-0.105-0.229-0.27-0.132-0.531-0.117
				c-0.083,0.224,0.154,0.428,0,0.529c-0.069-0.244-0.288-0.338-0.411-0.529c-0.52,0.185-0.8,0.181-1.117-0.119
				c0.392,0.913,0.184,1.836-0.354,2.412c0.217-0.121,0.231-0.092,0.529-0.059c0.003-0.299,0.267-0.206,0.354-0.294
				c-0.089-0.081-0.256-0.258-0.119-0.471c0.121,0.216,0.276,0.703,0.531,0.588c-0.193-0.022-0.184-0.249-0.296-0.353
				c0.073,0.009,0.134,0.104,0.178,0c-0.084-0.112-0.137-0.255-0.178-0.411c0.278,0.059-0.009-0.442,0.178-0.472
				c0.258,0.16-0.008-0.167,0.353-0.235c-0.025,0.327-0.107,0.599-0.295,0.766c0.392,0.041,0.113,0.751,0.295,0.999
				c0.006-0.111,0.194-0.041,0.176-0.176c-0.101-0.023-0.15,0.088-0.176,0c0.029-0.069,0.063-0.132,0.118-0.176
				c0.222,0.067,0.268-0.057,0.354,0.118c-0.053,0.104-0.143,0.172-0.176,0.293c0.247,0.005,0.139,0.135,0.057,0.236
				c0.078,0,0.157,0,0.235,0c0.003-0.244,0.082-0.329,0.353-0.412c0.029,0.069,0.063,0.134,0.119,0.176
				c0.129-0.083-0.075-0.143,0.059-0.176c0.348-0.065,0.461,0.243,0.766,0.117c-0.108-0.131-0.332-0.453-0.295-0.529
				c0.176,0.098,0.395,0.155,0.353,0.47c0.036-0.114,0.377-0.113,0.177,0.059c0.113,0.014,0.129-0.065,0.236-0.059
				c0.012,0.046,0,0.116,0.057,0.117c0.024-0.299-0.241-0.618-0.118-0.822c0.002,0.483,0.419,0.613,0.648,0.705
				c0.152-0.139-0.271-0.569,0-0.646c0.166,0.069,0.295,0.173,0.353,0.353c0.22,0.044,0.128-0.225,0.295-0.236
				c-0.012,0.147,0.089,0.185,0.175,0.236c0.018-0.08,0.084-0.111,0.06-0.236c-0.265,0.029-0.313-0.157-0.413-0.294
				c-0.211,0.106-0.449,0.224-0.589,0.119c0.146-0.079-0.062-0.22,0.059-0.235c0.069,0.338,0.54-0.017,0.589-0.235
				c0-0.158-0.164-0.151-0.237-0.237c0.024-0.113,0.229-0.046,0.178-0.235c-0.148-0.077-0.184,0.232-0.235,0.059
				c0.003-0.075,0.076-0.081,0.057-0.176c-0.275-0.105-0.232-0.039-0.292-0.235c-0.101,0.036,0.003,0.279-0.119,0.294
				c-0.011-0.303-0.105-0.404,0.059-0.587c-0.214,0.038-0.313-0.04-0.411-0.119c-0.146,0.24,0.11,0.181,0.176,0.354
				c-0.082,0.039-0.434-0.042-0.529-0.176c0.117-0.098,0.075,0.004,0.236,0C82.949,83.461,82.94,83.244,82.833,83.32z
				 M79.303,83.614C79.343,83.574,79.279,83.638,79.303,83.614L79.303,83.614z M79.599,84.437
				C79.636,84.398,79.575,84.461,79.599,84.437L79.599,84.437z M79.891,85.849C80.084,85.738,79.602,86.016,79.891,85.849
				L79.891,85.849z M80.069,83.614C80.265,83.755,79.927,83.416,80.069,83.614L80.069,83.614z M80.482,85.555
				C80.518,85.516,80.457,85.579,80.482,85.555L80.482,85.555z M81.068,86.612c-0.014-0.122-0.294-0.475-0.354-0.175
				C80.891,86.438,80.916,86.59,81.068,86.612z M81.188,86.378C81.224,86.34,81.163,86.403,81.188,86.378L81.188,86.378z
				 M81.188,86.437c0.012,0.046,0,0.115,0.057,0.117C81.232,86.509,81.243,86.438,81.188,86.437z M81.305,83.378
				C81.342,83.339,81.279,83.403,81.305,83.378L81.305,83.378z M81.597,83.614C81.831,83.546,81.365,83.546,81.597,83.614
				L81.597,83.614z M82.245,83.554C82.022,83.225,81.773,83.474,82.245,83.554L82.245,83.554z M82.423,83.495
				C82.459,83.457,82.397,83.52,82.423,83.495L82.423,83.495z M83.068,83.437C83.107,83.398,83.044,83.461,83.068,83.437
				L83.068,83.437z M83.716,85.437C83.755,85.398,83.692,85.462,83.716,85.437L83.716,85.437z M83.773,83.79
				C83.812,83.751,83.75,83.815,83.773,83.79L83.773,83.79z M83.833,85.613C83.871,85.575,83.81,85.638,83.833,85.613L83.833,85.613
				z M84.187,85.672C84.226,85.633,84.161,85.696,84.187,85.672L84.187,85.672z M84.247,85.79
				C84.477,85.722,84.013,85.722,84.247,85.79L84.247,85.79z M84.247,83.907C84.477,83.839,84.013,83.839,84.247,83.907
				L84.247,83.907z M84.421,84.908C84.46,84.869,84.397,84.932,84.421,84.908L84.421,84.908z M84.774,85.261
				c0-0.039,0-0.079,0-0.118c-0.082,0.002-0.129-0.027-0.176-0.059c0.011,0.088-0.02,0.218,0.059,0.236
				C84.67,85.273,84.708,85.25,84.774,85.261z M85.246,85.143c0.143-0.111,0.402-0.106,0.353-0.411c-0.294,0-0.589,0-0.883,0
				c0.016,0.11-0.064,0.129-0.059,0.235C84.78,85.1,85.202,84.931,85.246,85.143z"/>
			<path fill-rule="evenodd" clip-rule="evenodd" fill="#FFFFFF" d="M77.715,83.672c0.11,0.047,0.223-0.084,0.588-0.059
				c0.018,0.178,0.225,0.167,0.295,0.293c-0.011,0.069-0.107,0.05-0.176,0.059c0.268,0.295,0.423-0.273,0.705-0.176
				c-0.119,0.639-0.2,1.227-0.293,2c-0.142,0.023,0.033-0.268-0.175-0.176c0.024-0.111,0.166-0.106,0.118-0.294
				c-0.039-0.059-0.135-0.062-0.118-0.177c-0.048,0.052-0.292,0.329-0.06,0.294c-0.229,0.065-0.464,0.125-0.588,0.294
				c-0.205,0.047-0.226-0.087-0.413-0.059c0.205-0.306,0.454-0.566,0.765-0.764c-0.145-0.083-0.428,0.197-0.47,0.411
				c-0.08-0.018-0.05-0.147-0.061-0.236c-0.057,0.268-0.309-0.023-0.292,0.294c-0.191-0.242-0.087-0.71,0.058-0.941
				c-0.012-0.222-0.22-0.249-0.235-0.47c0.247,0.262,0.493,0.266,0.531,0.647C78.093,84.302,77.914,83.9,77.715,83.672z
				 M78.069,84.26c0.01,0.168,0.107,0.246,0.116,0.413c0.03,0.422,0.09-0.13,0.061-0.294c-0.112-0.066-0.127-0.228-0.235-0.294
				C78.007,84.165,78.038,84.213,78.069,84.26z M77.715,84.908c-0.059,0-0.072,0.103,0,0.117
				C77.71,84.959,77.802,84.934,77.715,84.908z M77.893,84.908C77.931,84.869,77.867,84.932,77.893,84.908L77.893,84.908z
				 M78.01,84.025C78.05,83.986,77.985,84.049,78.01,84.025L78.01,84.025z M78.363,85.377C78.595,85.31,78.131,85.31,78.363,85.377
				L78.363,85.377z M78.422,84.732C78.459,84.692,78.396,84.756,78.422,84.732L78.422,84.732z M78.894,83.966
				c-0.086,0.21-0.176,0.413-0.413,0.47c0.162,0.276-0.139,0.347-0.059,0.706C78.633,84.843,78.842,84.231,78.894,83.966z"/>
			<path fill-rule="evenodd" clip-rule="evenodd" fill="#FFFFFF" d="M78.01,84.084c0.108,0.066,0.124,0.228,0.235,0.294
				c0.03,0.164-0.03,0.716-0.061,0.294c-0.009-0.167-0.105-0.245-0.116-0.413C78.038,84.213,78.007,84.165,78.01,84.084z"/>
			<path fill-rule="evenodd" clip-rule="evenodd" fill="#FFFFFF" d="M78.422,85.143c-0.08-0.359,0.221-0.43,0.059-0.706
				c0.236-0.057,0.327-0.26,0.413-0.47C78.842,84.231,78.633,84.843,78.422,85.143z"/>
			<path fill-rule="evenodd" clip-rule="evenodd" fill="#FFFFFF" d="M83.011,83.672c-0.161,0.004-0.119-0.098-0.236,0
				c0.095,0.134,0.447,0.215,0.529,0.176c-0.066-0.173-0.323-0.114-0.176-0.354c0.098,0.079,0.197,0.156,0.411,0.119
				c-0.164,0.184-0.069,0.285-0.059,0.587c0.122-0.015,0.018-0.258,0.119-0.294c0.06,0.197,0.017,0.13,0.292,0.235
				c0.019,0.095-0.054,0.101-0.057,0.176c0.051,0.173,0.087-0.136,0.235-0.059c0.051,0.189-0.154,0.123-0.178,0.235
				c0.073,0.086,0.237,0.079,0.237,0.237c-0.05,0.218-0.52,0.573-0.589,0.235c-0.12,0.016,0.087,0.157-0.059,0.235
				c0.14,0.105,0.378-0.012,0.589-0.119c0.099,0.137,0.147,0.323,0.413,0.294c0.024,0.125-0.042,0.156-0.06,0.236
				c-0.086-0.051-0.187-0.089-0.175-0.236c-0.167,0.011-0.075,0.28-0.295,0.236c-0.057-0.179-0.187-0.283-0.353-0.353
				c-0.271,0.078,0.152,0.508,0,0.646c-0.229-0.092-0.646-0.222-0.648-0.705c-0.124,0.204,0.142,0.523,0.118,0.822
				c-0.057-0.001-0.045-0.071-0.057-0.117c-0.107-0.007-0.124,0.072-0.236,0.059c0.2-0.171-0.141-0.173-0.177-0.059
				c0.042-0.315-0.176-0.372-0.353-0.47c-0.036,0.076,0.187,0.398,0.295,0.529c-0.304,0.125-0.417-0.183-0.766-0.117
				c-0.134,0.033,0.071,0.093-0.059,0.176c-0.056-0.042-0.09-0.106-0.119-0.176c-0.271,0.083-0.35,0.168-0.353,0.412
				c-0.079,0-0.157,0-0.235,0c0.082-0.101,0.19-0.231-0.057-0.236c0.033-0.122,0.124-0.189,0.176-0.293
				c-0.086-0.175-0.132-0.05-0.354-0.118c-0.054,0.044-0.089,0.107-0.118,0.176c0.026,0.088,0.075-0.023,0.176,0
				c0.018,0.136-0.17,0.065-0.176,0.176c-0.182-0.248,0.096-0.958-0.295-0.999c0.188-0.167,0.27-0.438,0.295-0.766
				c-0.36,0.068-0.095,0.395-0.353,0.235c-0.187,0.029,0.1,0.53-0.178,0.472c0.041,0.156,0.094,0.299,0.178,0.411
				c-0.044,0.104-0.105,0.009-0.178,0c0.112,0.104,0.103,0.33,0.296,0.353c-0.255,0.115-0.41-0.372-0.531-0.588
				c-0.137,0.213,0.03,0.39,0.119,0.471c-0.087,0.088-0.351-0.005-0.354,0.294c-0.298-0.033-0.312-0.062-0.529,0.059
				c0.538-0.576,0.746-1.5,0.354-2.412c0.316,0.299,0.597,0.304,1.117,0.119c0.124,0.19,0.342,0.285,0.411,0.529
				c0.154-0.101-0.083-0.305,0-0.529c0.261-0.015,0.425-0.112,0.531,0.117c0.337-0.244,0.638,0.104,0.94-0.177
				c-0.009,0.148,0.091,0.185,0.177,0.236c0.2-0.111-0.101-0.206-0.059-0.353c0.066-0.049,0.157-0.078,0.294-0.059
				c0.011-0.051-0.021-0.055-0.059-0.058C82.94,83.244,82.949,83.461,83.011,83.672z M79.952,84.143
				C80.111,83.963,79.772,84.302,79.952,84.143L79.952,84.143z M80.126,84.025C80.166,83.986,80.102,84.049,80.126,84.025
				L80.126,84.025z M80.246,83.849c-0.059,0-0.074,0.103,0,0.118C80.238,83.9,80.331,83.874,80.246,83.849z M80.246,84.143
				c0.013,0.046,0.001,0.116,0.059,0.117C80.289,84.215,80.301,84.144,80.246,84.143z M80.657,84.025
				C80.886,83.879,80.461,83.939,80.657,84.025L80.657,84.025z M80.657,85.143c0.012,0.046,0.003,0.116,0.057,0.118
				C80.704,85.214,80.714,85.145,80.657,85.143z M80.714,84.967C80.949,84.897,80.482,84.897,80.714,84.967L80.714,84.967z
				 M81.068,85.555C81.109,85.516,81.044,85.579,81.068,85.555L81.068,85.555z M81.188,85.966
				C81.224,85.928,81.163,85.991,81.188,85.966L81.188,85.966z M81.188,85.025C81.118,85.402,81.365,85.155,81.188,85.025
				L81.188,85.025z M81.245,84.143C81.284,84.104,81.22,84.168,81.245,84.143L81.245,84.143z M81.245,84.437
				c0.015,0.046,0.003,0.117,0.06,0.118C81.29,84.509,81.302,84.438,81.245,84.437z M81.481,84.908
				c0.008,0.068-0.01,0.166,0.059,0.175C81.529,85.014,81.549,84.916,81.481,84.908z M81.597,83.849
				C81.636,83.81,81.573,83.874,81.597,83.849L81.597,83.849z M82.01,85.79C82.048,85.751,81.986,85.815,82.01,85.79L82.01,85.79z
				 M83.068,85.143c0.014,0.046,0.003,0.116,0.059,0.118C83.113,85.214,83.127,85.145,83.068,85.143z M83.068,85.083
				C83.496,85.308,83.08,84.82,83.068,85.083L83.068,85.083z M83.303,85.613C83.344,85.575,83.279,85.638,83.303,85.613
				L83.303,85.613z M83.538,84.672c0.015,0.046,0.003,0.115,0.061,0.118C83.585,84.744,83.597,84.674,83.538,84.672z M84.069,85.555
				c-0.006-0.092,0.009-0.205-0.118-0.177c0,0.04,0,0.079,0,0.118C84.01,85.495,84.021,85.542,84.069,85.555z"/>
			<path fill-rule="evenodd" clip-rule="evenodd" fill="#FFFFFF" d="M79.891,85.849C79.602,86.016,80.084,85.738,79.891,85.849
				L79.891,85.849z"/>
			<path fill-rule="evenodd" clip-rule="evenodd" fill="#FFFFFF" d="M79.952,84.143C79.772,84.302,80.111,83.963,79.952,84.143
				L79.952,84.143z"/>
			<path fill-rule="evenodd" clip-rule="evenodd" fill="#FFFFFF" d="M82.245,83.554C81.773,83.474,82.022,83.225,82.245,83.554
				L82.245,83.554z"/>
			<path fill-rule="evenodd" clip-rule="evenodd" fill="#FFFFFF" d="M83.068,85.083C83.08,84.82,83.496,85.308,83.068,85.083
				L83.068,85.083z"/>
		</g>
	</g>
	<g id="beidou">
		<g>
			
				<rect x="160.931" y="67.164" transform="matrix(0.9641 0.2654 -0.2654 0.9641 25.112 -44.6079)" fill-rule="evenodd" clip-rule="evenodd" fill="#FFFFFF" width="33.424" height="6.935"/>
			<polygon fill-rule="evenodd" clip-rule="evenodd" fill="#FFFFFF" points="247.692,93.968 215.475,85.098 217.316,78.41 
				249.539,87.282 			"/>
			<polygon fill="#FFFFFF" stroke="#000000" stroke-width="0.001" stroke-miterlimit="10" points="222.485,86.188 218.945,85.213 
				220.278,80.378 223.822,81.35 			"/>
			<polygon fill="#FFFFFF" stroke="#000000" stroke-width="0.001" stroke-miterlimit="10" points="227.357,87.49 223.822,86.514 
				225.15,81.679 228.694,82.65 			"/>
			
				<rect x="229.292" y="83.375" transform="matrix(0.9642 0.265 -0.265 0.9642 31.0273 -58.1845)" fill="#FFFFFF" stroke="#000000" stroke-width="0.001" stroke-miterlimit="10" width="3.666" height="5.019"/>
			
				<rect x="234.162" y="84.675" transform="matrix(0.9642 0.2652 -0.2652 0.9642 31.5652 -59.4549)" fill="#FFFFFF" stroke="#000000" stroke-width="0.001" stroke-miterlimit="10" width="3.666" height="5.022"/>
			
				<rect x="239.032" y="85.98" transform="matrix(0.9644 0.2646 -0.2646 0.9644 31.9993 -60.5804)" fill="#FFFFFF" stroke="#000000" stroke-width="0.001" stroke-miterlimit="10" width="3.67" height="5.017"/>
			<polygon fill="none" points="246.845,92.695 243.297,91.721 244.639,86.879 248.178,87.858 			"/>
			<polygon fill-rule="evenodd" clip-rule="evenodd" fill="#FFFFFF" points="205.916,85.082 197.685,82.814 200.28,73.366 
				208.517,75.631 			"/>
			
				<rect x="203.759" y="69.35" transform="matrix(0.9642 0.2651 -0.2651 0.9642 26.4727 -51.9491)" fill-rule="evenodd" clip-rule="evenodd" fill="#FFFFFF" width="3.829" height="5.479"/>
			<path fill-rule="evenodd" clip-rule="evenodd" fill="#FFFFFF" d="M211.838,65.621c0-2.767-2.244-5.011-5.015-5.011
				c-2.762,0-5.006,2.244-5.006,5.011c0,2.769,2.244,5.011,5.006,5.011C209.594,70.632,211.838,68.39,211.838,65.621z"/>
			
				<line fill="none" stroke="#FFFFFF" stroke-width="0.001" stroke-miterlimit="10" x1="206.823" y1="77.153" x2="217.747" y2="79.226"/>
			
				<line fill="none" stroke="#FFFFFF" stroke-width="0.001" stroke-miterlimit="10" x1="206.823" y1="79.226" x2="216.646" y2="85.082"/>
			<polyline fill="none" stroke="#FFFFFF" stroke-width="0.001" stroke-miterlimit="10" points="194.571,72.092 201.817,77.153 
				192.049,77.961 			"/>
		</g>
	</g>
</g>
<g id="Projects">
</g>
<g id="Instruments">
	<g>
		<text transform="matrix(1 0 0 1 525.4858 104.8628)"><tspan x="0" y="0" fill="#FFFFFF" font-family="'Arial-BoldMT'" font-size="4.5667">+19100km</tspan><tspan x="-5.765" y="5.479" fill="#FFFFFF" font-family="'Arial-BoldMT'" font-size="4.5667">Glonass Global</tspan><tspan x="-16.548" y="10.96" fill="#FFFFFF" font-family="'Arial-BoldMT'" font-size="4.5667">Positioning System (Usa)</tspan></text>
	</g>
	<g>
		<text transform="matrix(1 0 0 1 437.2529 102.1226)"><tspan x="0" y="0" fill="#FFFFFF" font-family="'Arial-BoldMT'" font-size="4.5667">+1330km</tspan><tspan x="-7.793" y="5.48" fill="#FFFFFF" font-family="'Arial-BoldMT'" font-size="4.5667">Topex/poseidon</tspan><tspan x="-16.177" y="10.96" fill="#FFFFFF" font-family="'Arial-BoldMT'" font-size="4.5667">Sea Level Measurement</tspan><tspan x="-14.143" y="16.44" fill="#FFFFFF" font-family="'Arial-BoldMT'" font-size="4.5667">System (USA, France)</tspan></text>
	</g>
	<g>
		<text transform="matrix(1 0 0 1 326.8501 106.2324)"><tspan x="0" y="0" fill="#FFFFFF" font-family="'Arial-BoldMT'" font-size="4.5667">+23222km</tspan><tspan x="-16.676" y="5.48" fill="#FFFFFF" font-family="'Arial-BoldMT'" font-size="4.5667">Galileo Global Navigation</tspan><tspan x="-12.874" y="10.96" fill="#FFFFFF" font-family="'Arial-BoldMT'" font-size="4.5667">System Satellites (Eu)</tspan></text>
	</g>
	<g>
		<g>
			<g>
				<text transform="matrix(1 0 0 1 64.0293 103.4927)"><tspan x="0" y="0" fill="#FFFFFF" font-family="'Arial-BoldMT'" font-size="4.5667">Tardigrades</tspan><tspan x="3.68" y="5.48" fill="#FFFFFF" font-family="'Arial-BoldMT'" font-size="4.5667">In Space</tspan></text>
			</g>
		</g>
	</g>
	<g>
		<g>
			<text transform="matrix(1 0 0 1 186.4209 107.6025)"><tspan x="0" y="0" fill="#FFFFFF" font-family="'Arial-BoldMT'" font-size="4.5667">+8063km</tspan><tspan x="-4.119" y="5.48" fill="#FFFFFF" font-family="'Arial-BoldMT'" font-size="4.5667">Ob3 Satellite</tspan><tspan x="-8.303" y="10.96" fill="#FFFFFF" font-family="'Arial-BoldMT'" font-size="4.5667">Internet Network</tspan></text>
		</g>
	</g>
</g>
</svg>
