<?xml version="1.0" encoding="UTF-8" standalone="no"?>
<svg width="14px" height="23px" viewBox="0 0 14 23" version="1.1" xmlns="http://www.w3.org/2000/svg" xmlns:xlink="http://www.w3.org/1999/xlink" xmlns:sketch="http://www.bohemiancoding.com/sketch/ns">
    <!-- Generator: Sketch 3.5.2 (25235) - http://www.bohemiancoding.com/sketch -->
    <title>superfund</title>
    <desc>Created with Sketch.</desc>
    <defs></defs>
    <g id="Page-1" stroke="none" stroke-width="1" fill="none" fill-rule="evenodd" sketch:type="MSPage">
        <g id="superfund" sketch:type="MSLayerGroup">
            <g id="svg4148" sketch:type="MSShapeGroup">
                <g id="Page-1">
                    <g id="Artboard-1">
                        <g id="svg4148">
                            <g id="path5366_1_" transform="translate(0.700000, 14.700000)" fill="#1D9B6C" fill-opacity="0.699615036">
                                <ellipse id="Oval" cx="6.3" cy="4.1797" rx="6.293" ry="3.4965"></ellipse>
                            </g>
                            <g id="path5359_1_">
                                <path d="M7,19.2024 C7,19.2024 0.357,11.6151 0.357,7.2471 C0.357,3.4377 3.3313,0.35 7,0.35 C10.6687,0.35 13.643,3.4377 13.643,7.2471 C13.643,11.6151 7,19.2024 7,19.2024 L7,19.2024 Z" id="Shape" fill="#42DCA3"></path>
                                <path d="M7,19.551 C6.8992,19.551 6.804,19.5069 6.7368,19.4313 C6.4617,19.1177 0.007,11.6949 0.007,7.2471 C0.007,3.2508 3.1437,0 7,0 C10.8563,0 13.993,3.2508 13.993,7.2471 C13.993,11.6949 7.5383,19.1177 7.2632,19.4313 C7.196,19.5076 7.1008,19.551 7,19.551 L7,19.551 L7,19.551 Z M7,0.6993 C3.5301,0.6993 0.7063,3.6365 0.7063,7.2471 C0.7063,10.948 5.775,17.2053 7,18.662 C8.2236,17.2067 13.2937,10.9466 13.2937,7.2471 C13.293,3.6365 10.4699,0.6993 7,0.6993 L7,0.6993 L7,0.6993 Z" id="Shape" fill="#1D9B6C"></path>
                            </g>
                            <g id="path5990_1_" transform="translate(4.200000, 3.500000)">
                                <ellipse id="Oval" fill="#E6F4EF" cx="2.8" cy="3.4923" rx="2.4472" ry="2.4472"></ellipse>
                                <path d="M2.8,6.2895 C1.2579,6.2895 0.0035,5.0351 0.0035,3.493 C0.0035,1.9509 1.2579,0.6951 2.8,0.6951 C4.3421,0.6951 5.5979,1.9509 5.5979,3.493 C5.5979,5.0351 4.3421,6.2895 2.8,6.2895 L2.8,6.2895 L2.8,6.2895 Z M2.8,1.3944 C1.6436,1.3944 0.7028,2.3352 0.7028,3.4923 C0.7028,4.6487 1.6436,5.5895 2.8,5.5895 C3.9578,5.5895 4.8979,4.6487 4.8979,3.4923 C4.8979,2.3352 3.9571,1.3944 2.8,1.3944 L2.8,1.3944 L2.8,1.3944 Z" id="Shape" fill="#1D9B6C"></path>
                            </g>
                        </g>
                    </g>
                </g>
            </g>
        </g>
    </g>
</svg>